<?xml version="1.0" ?><!DOCTYPE svg  PUBLIC '-//W3C//DTD SVG 1.1//EN'  'http://www.w3.org/Graphics/SVG/1.1/DTD/svg11.dtd'><svg height="100%" style="fill-rule:evenodd;clip-rule:evenodd;stroke-linejoin:round;stroke-miterlimit:2;" version="1.1" viewBox="0 0 512 512" width="100%" xml:space="preserve" xmlns="http://www.w3.org/2000/svg" xmlns:serif="http://www.serif.com/" xmlns:xlink="http://www.w3.org/1999/xlink"><path d="M256,0c141.29,0 256,114.71 256,256c0,141.29 -114.71,256 -256,256c-141.29,0 -256,-114.71 -256,-256c0,-141.29 114.71,-256 256,-256Zm143.233,205.824c-1.335,29.198 -21.728,69.178 -61.183,119.928c-40.787,52.999 -75.299,79.505 -103.521,79.505c-17.491,0 -32.29,-16.131 -44.377,-48.418c-8.071,-29.596 -16.135,-59.188 -24.213,-88.783c-8.977,-32.266 -18.605,-48.422 -28.904,-48.422c-2.245,0 -10.098,4.722 -23.545,14.128l-14.111,-18.176c14.807,-13.007 29.409,-26.011 43.776,-39.039c19.747,-17.055 34.581,-26.029 44.461,-26.936c23.341,-2.245 37.711,13.714 43.104,47.869c5.83,36.853 9.867,59.775 12.129,68.742c6.739,30.582 14.146,45.855 22.227,45.855c6.272,0 15.709,-9.918 28.291,-29.761c12.555,-19.826 19.283,-34.917 20.193,-45.288c1.796,-17.117 -4.94,-25.693 -20.193,-25.693c-7.185,0 -14.591,1.65 -22.209,4.916c14.747,-48.284 42.918,-71.732 84.49,-70.397c30.827,0.907 45.367,20.895 43.585,59.97Z"/></svg>